<svg width="48" height="48" fill="none" xmlns="http://www.w3.org/2000/svg"><path d="M15.68 2.352a2.8 2.8 0 1 0-5.408 1.45l.724 2.704a2.8 2.8 0 0 0 5.41-1.45l-.725-2.704ZM3.802 10.272a2.8 2.8 0 0 0-1.45 5.409l2.705.725a2.8 2.8 0 1 0 1.45-5.41l-2.705-.724ZM28.48 8.68a2.8 2.8 0 0 0-3.96-3.96L22.54 6.7a2.8 2.8 0 1 0 3.96 3.96l1.98-1.98ZM8.68 28.48l1.98-1.98a2.8 2.8 0 1 0-3.96-3.96l-1.98 1.98a2.8 2.8 0 0 0 3.96 3.96ZM17.64 14A2.8 2.8 0 0 0 14 17.64l11.2 28a2.8 2.8 0 0 0 5.105.212l3.862-7.725 8.453 8.453a2.8 2.8 0 1 0 3.96-3.96l-8.453-8.453 7.725-3.863a2.8 2.8 0 0 0-.212-5.104l-28-11.2Z" fill="#FF7500"/></svg>